<svg

                            viewBox="0 0 1025 1024" version="1.1"
                            xmlns="http://www.w3.org/2000/svg"
                            p-id="2299" width="26" height="26"
                            style="width: 19px;font-size: 500%"
                            >
                            <path d="M1024 761.124571l0 119.442286-366.884571 0 0-119.442286 76.580571 0 0-529.115429-3.437714 0-179.419429 648.557714-138.825143 0-177.152-648.557714-4.534857 0 0 529.115429 77.165714 0 0 119.442286-307.419429 0 0-119.442286 39.424 0q11.995429 0 24.576-11.117714t12.580571-21.430857l0-503.442286q0-10.313143-12.580571-22.820571t-24.576-12.580571l-39.424 0 0-119.442286 384 0 126.317714 469.138286 3.437714 0 127.414857-469.138286 382.829714 0 0 119.442286-40.594286 0q-10.825143 0-23.405714 12.580571t-12.580571 22.820571l0 503.442286q0 10.313143 12.288 21.430857t23.698286 11.117714l40.594286 0z" p-id="2300" fill="#ffffff"></path>
                        </svg>