 <svg 
 xmlns="http://www.w3.org/2000/svg" 
 viewBox="0 0 60 60" 
 style="font-size: 300%">
    <defs>
        <style>.a{fill:#fff;fill-rule:evenodd}</style>
        </defs>
        <path class="a" d="M39.85,45.37a1.83,1.83,0,0,0,1.71.22,1.78,1.78,0,0,0,1.11-1.3C44,38,47.27,22,48.49,16.28a1.2,1.2,0,0,0-.4-1.18,1.24,1.24,0,0,0-1.23-.21c-6.48,2.4-26.42,9.88-34.58,12.9a1.27,1.27,0,0,0,.08,2.41c3.66,1.1,8.46,2.62,8.46,2.62S23.06,39.59,24.23,43a1.38,1.38,0,0,0,.93.89,1.35,1.35,0,0,0,1.25-.32l4.79-4.52S36.72,43.14,39.85,45.37ZM22.84,32l2.59,8.56L26,35.1,41.74,20.91a.42.42,0,0,0,0-.58.44.44,0,0,0-.58-.1Z"></path>
 </svg>