 <svg 
 xmlns="http://www.w3.org/2000/svg" 
 viewBox="0 0 60 60" 
 style="font-size: 300%">
    <defs>
        <style>.a{fill:#fff}</style>
    </defs>
    <path class="a" d="M47.88,18.76A15.29,15.29,0,0,1,43.51,20a7.58,7.58,0,0,0,3.34-4.21A15.42,15.42,0,0,1,42,17.6a7.61,7.61,0,0,0-13,6.93,21.57,21.57,0,0,1-15.68-7.94,7.61,7.61,0,0,0,2.36,10.15,7.6,7.6,0,0,1-3.45-.95,7.61,7.61,0,0,0,6.1,7.55,7.59,7.59,0,0,1-3.43.13,7.61,7.61,0,0,0,7.1,5.29A15.33,15.33,0,0,1,10.8,41.91a21.62,21.62,0,0,0,11.66,3.41c14.12,0,22.1-11.92,21.62-22.62A15.47,15.47,0,0,0,47.88,18.76Z"></path>
                        </svg>